# xmcd CD database file
#
# Track frame offsets:
#	150
#	31522
#	90700
#	121032
#	155554
#	197261
#	228233
#	264593
#
# Disc length: 3891 seconds
#
# Revision: 0
# Processed by: cddbd v1.5PL3 Copyright (c) Steve Scherf et al.
# Submitted via: CDex 1.51
#
DISCID=520f3108
DTITLE=Woody Shaw - Solid (Camden Compilation) Disc 1
DYEAR=1987
DGENRE=Jazz
TTITLE0=The Moontrane
TTITLE1=Sanyas
TTITLE2=Tapscott's Blues (alt. take)
TTITLE3=Katrina Balerina (alt. take)
TTITLE4=Are They Only Dreams
TTITLE5=Tapscott's Blues
TTITLE6=Katrina Balerina
TTITLE7=You And The Night And The Music
EXTD=YEAR: 1987
EXTT0=
EXTT1=
EXTT2=
EXTT3=
EXTT4=
EXTT5=
EXTT6=
EXTT7=
PLAYORDER=
